<?xml version="1.0" standalone="no"?>
<!DOCTYPE svg PUBLIC "-//W3C//DTD SVG 20010904//EN"
 "http://www.w3.org/TR/2001/REC-SVG-20010904/DTD/svg10.dtd">
<svg version="1.0" xmlns="http://www.w3.org/2000/svg"
 width="1024.000000pt" height="193.000000pt" viewBox="0 0 1024.000000 193.000000"
 preserveAspectRatio="xMidYMid meet">

  <g transform="translate(0.000000,193.000000) scale(0.100000,-0.100000)"
    fill="#E11D48" stroke="none">
<path d="M9095 1916 c-41 -18 -83 -69 -91 -111 -3 -19 0 -57 7 -85 17 -66 7
-77 -53 -62 -24 6 -78 13 -121 16 -43 3 -106 13 -139 22 -33 8 -66 13 -73 10
-7 -2 -28 -34 -46 -71 -25 -52 -33 -82 -37 -143 -3 -65 -8 -81 -28 -100 -13
-13 -24 -29 -24 -37 0 -27 -18 -25 -75 10 -64 38 -152 71 -163 60 -4 -4 -46
-70 -94 -148 l-87 -142 32 -17 c51 -26 98 -83 118 -140 28 -84 43 -78 123 51
38 61 73 114 80 119 19 15 66 23 66 12 0 -12 -81 -159 -111 -202 -11 -14 -19
-29 -19 -32 0 -3 43 -6 95 -6 l95 0 6 -27 c4 -16 20 -56 36 -91 17 -35 28 -65
25 -68 -2 -3 -28 -9 -57 -13 -87 -14 -130 -65 -100 -121 8 -15 8 -20 -2 -21
-24 -2 -92 -5 -195 -7 l-101 -2 -23 -47 c-13 -27 -44 -70 -70 -98 -37 -40
-181 -268 -248 -394 l-13 -24 108 6 c69 3 134 13 176 26 59 19 69 26 97 69 60
91 57 89 86 62 14 -13 38 -47 54 -75 31 -55 51 -65 127 -65 42 0 45 19 9 62
-14 16 -25 40 -25 52 0 13 -3 43 -6 67 l-5 44 78 60 c43 32 124 99 181 148
l102 88 59 -7 c87 -10 88 -11 46 -93 -28 -56 -44 -112 -70 -243 -19 -94 -35
-180 -35 -190 0 -17 7 -19 81 -16 l81 3 150 245 c82 135 171 281 198 325 49
81 69 150 130 457 l11 57 87 3 86 3 87 145 c48 80 88 150 88 156 1 18 -32 23
-174 30 l-130 7 -215 -351 c-118 -192 -218 -348 -222 -346 -3 2 -9 18 -13 34
-6 26 10 56 114 228 78 129 129 203 145 210 27 12 56 63 56 99 0 13 9 41 20
63 11 22 20 44 20 49 0 6 -49 11 -122 13 l-123 3 -6 45 c-5 37 2 77 18 99 1 2
19 7 39 10 45 7 70 49 86 143 10 56 9 68 -10 110 -34 77 -104 106 -177 74z
m119 -47 c40 -35 52 -76 42 -143 -10 -64 -44 -110 -86 -116 -28 -4 -39 -12
-53 -43 -16 -32 -17 -44 -8 -87 13 -58 3 -118 -30 -182 -11 -22 -18 -42 -16
-44 2 -3 24 -2 48 2 32 5 53 17 76 41 41 43 138 86 117 51 -4 -6 1 -17 10 -23
42 -31 -18 -105 -85 -105 -21 0 -66 -13 -101 -28 -91 -41 -119 -51 -158 -54
-29 -3 -39 -10 -64 -50 l-29 -48 56 -112 c31 -62 63 -133 72 -158 17 -52 20
-133 5 -160 -16 -30 -74 -43 -160 -36 l-77 6 -109 -96 c-60 -53 -144 -124
-186 -157 l-77 -61 6 -81 c4 -61 10 -84 24 -97 21 -18 25 -38 9 -38 -36 0 -78
31 -93 66 -8 22 -29 52 -46 68 -17 17 -31 37 -31 47 0 28 38 66 74 73 66 13
166 157 166 239 0 18 -7 41 -15 51 -8 11 -15 28 -15 38 0 22 53 56 100 64 85
14 87 24 35 143 -19 43 -35 88 -35 99 0 11 -7 22 -15 26 -39 15 2 91 120 226
73 82 99 128 139 238 l26 73 -23 8 c-12 5 -44 17 -72 28 -27 10 -53 19 -57 21
-4 2 -32 -48 -62 -110 -43 -88 -56 -125 -58 -168 -3 -52 -5 -56 -38 -72 -44
-21 -82 -26 -87 -12 -2 6 8 16 22 22 23 11 25 17 25 72 0 53 3 63 29 85 25 23
29 35 34 100 6 79 47 189 74 200 9 3 50 -1 92 -9 151 -29 277 -47 294 -41 22
9 30 37 17 69 -15 40 -12 128 5 150 47 62 116 72 169 25z m-407 -393 c1 -1
-15 -43 -35 -93 -27 -68 -53 -111 -97 -163 -33 -38 -62 -70 -66 -70 -13 0 -18
43 -12 113 5 58 14 86 55 163 l49 93 52 -20 c29 -11 53 -22 54 -23z m203 -388
c0 -13 -9 -54 -18 -93 l-18 -70 -32 54 c-30 53 -30 56 -15 85 19 37 30 46 61
46 16 0 22 -6 22 -22z m-544 -587 c-34 -86 -105 -176 -123 -157 -6 5 70 138
106 185 30 40 39 26 17 -28z"/>
<path d="M8784 823 c7 -21 16 -59 20 -85 4 -27 13 -48 19 -48 27 0 57 13 57
24 0 15 -90 146 -101 146 -4 0 -2 -17 5 -37z m61 -103 c-10 -17 -25 -1 -25 28
l0 26 16 -22 c8 -12 12 -27 9 -32z"/>
<path d="M7970 1444 c-14 -3 -53 -11 -87 -20 l-62 -16 -288 -471 c-274 -449
-288 -474 -286 -517 3 -59 60 -174 111 -223 l38 -38 127 210 c92 151 127 217
127 240 0 61 32 177 75 268 53 112 114 181 199 223 60 31 62 32 153 183 86
143 90 152 70 159 -24 6 -136 8 -177 2z"/>
<path d="M3640 1404 c-117 -32 -223 -131 -292 -273 -49 -99 -63 -202 -34 -246
62 -95 246 -59 367 72 27 30 49 58 49 63 0 5 -20 12 -44 15 -42 7 -46 5 -80
-33 -60 -66 -144 -92 -180 -56 -41 40 6 187 90 283 38 43 120 91 159 91 36 0
65 -28 65 -63 l0 -32 50 3 c48 4 50 5 56 38 8 44 -13 101 -46 125 -35 26 -96
31 -160 13z"/>
<path d="M4667 1409 c-140 -33 -279 -176 -336 -346 -52 -156 -3 -241 132 -230
81 7 154 47 229 126 l63 65 -49 10 c-48 9 -50 8 -78 -23 -46 -51 -97 -81 -138
-81 -98 0 -92 116 14 265 70 97 167 146 221 111 18 -12 25 -25 25 -49 l0 -32
48 4 c54 4 62 12 62 64 0 56 -23 92 -70 111 -44 18 -66 18 -123 5z"/>
<path d="M390 1288 c-58 -67 -169 -195 -248 -285 l-142 -163 54 0 55 0 53 65
53 65 99 0 99 0 -7 -42 c-4 -24 -9 -53 -13 -65 -5 -22 -2 -23 43 -23 l49 0 59
273 c33 149 61 278 64 285 3 9 -12 12 -54 12 l-59 -1 -105 -121z m73 -120
l-25 -108 -76 0 -75 0 19 22 c51 60 178 198 180 195 1 -1 -9 -50 -23 -109z"/>
<path d="M705 1367 c-14 -24 -25 -47 -25 -50 0 -3 32 -7 70 -9 l70 -3 -121
-220 c-67 -121 -124 -226 -126 -232 -4 -9 9 -13 44 -13 l50 0 129 235 129 234
75 3 74 3 23 40 c12 22 23 43 23 48 0 4 -88 7 -195 7 l-194 0 -26 -43z"/>
<path d="M1243 1398 c-13 -16 -290 -518 -299 -541 -5 -15 1 -17 43 -17 l48 0
69 125 70 125 99 0 98 0 -29 -52 c-69 -124 -102 -185 -102 -191 0 -4 22 -7 48
-7 l48 0 139 253 c77 138 148 267 158 285 l20 33 -54 -3 -54 -3 -59 -107 -60
-108 -99 0 -99 0 38 68 c20 37 48 86 61 110 l25 42 -50 0 c-28 0 -54 -6 -59
-12z"/>
<path d="M1796 1348 c-180 -325 -276 -500 -276 -504 0 -2 81 -4 180 -4 l180 0
20 40 c11 21 20 42 20 45 0 3 -54 5 -120 5 -77 0 -120 4 -120 11 0 5 56 112
125 236 69 125 125 228 125 230 0 1 -22 3 -50 3 l-49 0 -35 -62z"/>
<path d="M2226 1368 c-46 -82 -286 -519 -286 -524 0 -2 87 -4 194 -4 l194 0
25 43 25 42 -144 3 c-79 1 -144 5 -144 8 0 2 19 38 43 79 l42 75 132 0 131 0
25 45 26 45 -131 0 c-71 0 -128 4 -126 8 2 5 17 34 33 65 l30 57 137 0 136 0
26 46 c14 26 26 48 26 50 0 2 -83 4 -185 4 l-184 0 -25 -42z"/>
<path d="M2676 1364 c-14 -26 -26 -48 -26 -50 0 -2 32 -4 70 -4 39 0 70 -2 70
-5 0 -2 -56 -106 -125 -230 -69 -124 -125 -228 -125 -231 0 -2 22 -4 49 -4
l50 0 128 233 128 232 75 3 75 3 23 42 c12 23 22 45 22 50 0 4 -87 7 -194 7
l-194 0 -26 -46z"/>
<path d="M3146 1128 l-155 -283 46 -3 c25 -2 49 0 54 5 9 10 309 550 309 558
0 3 -22 5 -49 5 l-49 0 -156 -282z"/>
<path d="M4915 1178 c-71 -128 -141 -257 -158 -285 l-29 -53 180 0 180 0 25
43 25 42 -124 3 c-68 1 -124 6 -124 11 0 4 56 110 125 234 69 125 125 229 125
232 0 3 -22 5 -49 5 l-49 0 -127 -232z"/>
<path d="M5328 1218 c-117 -213 -133 -253 -124 -303 17 -91 159 -112 277 -42
75 45 126 114 249 338 l107 194 -40 3 c-21 2 -45 1 -52 -2 -7 -2 -60 -91 -119
-198 -127 -228 -161 -269 -235 -276 -63 -6 -85 9 -78 53 3 16 51 112 106 212
56 100 104 189 107 197 5 13 -2 16 -43 16 l-49 0 -106 -192z"/>
<path d="M5907 1313 c-201 -362 -257 -464 -257 -469 0 -3 75 -4 168 -2 184 4
211 11 276 68 41 37 86 116 86 154 0 13 -8 34 -19 47 -18 22 -18 23 28 53 78
52 121 170 78 213 -21 22 -86 32 -204 33 l-102 0 -54 -97z m261 -35 c2 -18 -6
-37 -27 -60 -28 -32 -32 -33 -115 -37 -47 -1 -86 -1 -86 2 0 6 30 60 57 105
13 21 20 23 91 20 75 -3 77 -4 80 -30z m-117 -208 c24 -14 24 -37 -1 -78 -29
-47 -75 -63 -170 -60 l-79 3 40 73 40 72 75 0 c41 0 84 -5 95 -10z"/>
<path d="M6154 719 c-230 -381 -420 -696 -422 -700 -2 -5 71 -9 161 -9 l165 0
408 678 c224 372 414 687 422 700 l14 22 -164 0 -164 0 -420 -691z"/>
<path d="M9778 1241 c-49 -82 -88 -152 -88 -156 0 -4 20 -25 45 -47 67 -59 89
-108 90 -195 0 -40 2 -73 5 -73 7 0 274 447 278 465 5 19 -79 99 -130 123 -25
13 -61 25 -80 28 l-33 5 -87 -150z"/>
<path d="M6828 1142 l-146 -240 19 -179 c10 -98 19 -186 19 -195 0 -16 -13
-18 -138 -18 l-137 0 -83 -137 -82 -138 157 -3 c117 -2 160 1 169 10 7 7 109
171 228 365 l215 352 -34 198 c-19 109 -36 204 -37 212 -2 7 -69 -95 -150
-227z"/>
<path d="M7630 1329 c-205 -132 -351 -357 -390 -601 -27 -165 -23 -160 214
233 121 200 226 374 234 387 8 12 12 22 10 22 -3 0 -33 -18 -68 -41z"/>
<path d="M10080 1048 c-40 -68 -196 -329 -347 -581 -151 -253 -273 -461 -270
-463 8 -8 163 24 217 45 30 12 77 34 105 49 49 26 54 34 252 377 225 388 218
370 192 510 -12 65 -57 185 -69 185 -4 0 -40 -55 -80 -122z"/>
<path d="M6872 542 c-105 -176 -192 -323 -192 -326 0 -3 15 -6 34 -6 39 0 36
7 57 -133 l12 -78 51 3 51 3 124 200 125 200 -29 200 c-16 110 -31 213 -35
229 -5 26 -26 -5 -198 -292z"/>
<path d="M10095 433 c-54 -92 -105 -178 -113 -190 -31 -49 10 -20 63 44 75 91
165 269 153 304 -2 6 -48 -65 -103 -158z"/>
<path d="M3403 575 c-112 -35 -217 -134 -284 -270 -35 -70 -43 -97 -47 -159
-4 -73 -4 -76 25 -105 58 -58 168 -49 273 21 59 39 138 123 127 134 -3 3 -24
8 -47 11 -38 5 -44 3 -72 -31 -56 -68 -147 -96 -183 -56 -40 44 6 184 93 281
94 104 222 119 222 26 0 -25 3 -27 45 -27 49 0 65 16 65 65 0 100 -96 148
-217 110z"/>
<path d="M3903 575 c-173 -53 -343 -273 -343 -441 0 -50 4 -60 33 -89 45 -45
93 -53 177 -31 83 21 146 63 219 142 116 127 171 294 121 372 -36 58 -116 76
-207 47z m97 -105 c46 -46 4 -170 -93 -277 -110 -119 -237 -126 -237 -12 0 87
117 257 202 294 49 21 104 19 128 -5z"/>
<path d="M720 303 c-84 -153 -155 -282 -158 -287 -3 -5 58 -7 139 -4 129 4
150 8 203 32 136 61 264 245 274 391 4 69 3 73 -26 106 l-30 34 -124 3 -124 4
-154 -279z m342 157 c14 -17 17 -32 12 -59 -16 -92 -103 -224 -179 -271 -37
-23 -175 -41 -175 -23 0 11 185 350 203 372 19 22 116 9 139 -19z"/>
<path d="M1235 304 c-132 -151 -241 -280 -243 -285 -2 -5 19 -9 46 -9 49 0 51
1 103 65 l52 65 100 0 100 0 -6 -33 c-3 -17 -9 -47 -13 -65 l-7 -33 49 3 49 3
56 255 c32 140 60 267 63 283 5 27 5 27 -52 27 l-57 0 -240 -276z m208 34
l-25 -108 -75 0 c-57 0 -72 3 -67 13 11 18 187 208 190 205 1 -2 -9 -51 -23
-110z"/>
<path d="M1703 301 c-84 -152 -153 -281 -153 -284 0 -4 19 -7 43 -7 l43 0 119
224 c66 124 121 223 123 221 2 -1 -29 -99 -68 -217 -38 -118 -70 -218 -70
-222 0 -3 21 -6 48 -6 l47 1 147 187 c161 205 218 272 195 232 -8 -14 -65
-112 -126 -217 -61 -106 -111 -195 -111 -198 0 -3 20 -5 44 -5 l44 0 140 253
c77 138 147 267 156 285 l17 32 -74 0 -73 0 -153 -191 c-84 -105 -154 -189
-157 -187 -2 3 23 85 56 183 33 99 60 183 60 187 0 4 -33 8 -72 8 l-73 -1
-152 -278z"/>
<path d="M2398 312 c-81 -147 -150 -275 -153 -284 -6 -16 -1 -18 41 -18 l49 0
60 110 60 110 81 0 c140 0 215 36 279 133 66 102 67 184 3 206 -17 6 -85 11
-152 11 l-121 -1 -147 -267z m333 168 c38 -21 11 -95 -49 -132 -33 -20 -172
-39 -172 -24 0 7 28 58 72 134 18 30 23 32 74 32 31 0 64 -5 75 -10z"/>
<path d="M2957 373 c-63 -115 -133 -243 -157 -286 l-42 -78 52 3 52 3 150 270
c82 149 152 276 155 283 4 9 -9 12 -45 12 l-50 0 -115 -207z"/>
<path d="M4198 387 c-124 -225 -139 -268 -112 -324 26 -53 75 -69 163 -55 125
21 197 91 314 304 37 67 85 156 107 196 l41 72 -53 0 -53 -1 -105 -192 c-109
-198 -143 -248 -191 -273 -57 -29 -129 -10 -129 34 0 9 50 107 110 218 61 111
110 204 110 208 0 3 -21 6 -48 6 l-47 0 -107 -193z"/>
<path d="M4808 538 c-54 -92 -288 -518 -288 -523 0 -3 22 -5 49 -5 l49 0 65
118 c61 111 67 117 98 120 63 5 74 -13 77 -132 l4 -106 54 0 54 0 -1 58 c0 53
-11 140 -20 170 -3 8 16 20 49 31 96 33 172 131 172 223 0 76 -15 82 -190 86
l-147 4 -25 -44z m226 -58 c19 -7 26 -17 26 -36 0 -38 -66 -99 -116 -107 -45
-8 -144 -9 -144 -2 0 10 75 141 84 147 16 11 120 10 150 -2z"/>
<path d="M5263 540 c-13 -21 -23 -41 -23 -44 0 -4 29 -6 65 -6 45 0 65 -4 65
-12 0 -7 -56 -114 -125 -238 l-124 -225 46 -3 c25 -2 49 0 54 5 4 4 60 103
124 218 158 285 132 255 218 255 l73 0 22 45 22 45 -198 0 -197 0 -22 -40z"/>
<path d="M7559 289 c-116 -196 -116 -185 -2 -241 45 -22 78 -31 118 -32 l55
-1 95 163 94 162 -48 0 c-61 0 -149 43 -176 87 -11 18 -23 32 -27 33 -4 0 -53
-77 -109 -171z"/>
<path d="M9500 385 c-36 -7 -104 -13 -151 -14 -68 -1 -89 -5 -101 -18 -18 -21
-194 -311 -203 -336 -7 -16 5 -17 152 -17 112 0 164 4 175 13 17 13 228 364
228 379 0 10 -16 9 -100 -7z"/>
<path d="M7071 162 c-44 -70 -83 -134 -86 -142 -4 -13 12 -15 106 -12 l110 3
-5 27 c-3 15 -13 78 -22 140 -9 61 -18 112 -19 112 -2 0 -40 -58 -84 -128z"/>
</g>
</svg>
